<svg width="35" height="35" viewBox="0 0 35 35" fill="none" xmlns="http://www.w3.org/2000/svg">
<path d="M35 17.5C35 27.165 27.165 35 17.5 35C7.83502 35 0 27.165 0 17.5C0 7.83502 7.83502 0 17.5 0C27.165 0 35 7.83502 35 17.5Z" fill="white" fill-opacity="0.5"/>
<path fill-rule="evenodd" clip-rule="evenodd" d="M20.3841 11.6799C20.5609 11.8921 20.5322 12.2073 20.3201 12.3841L14.781 17L20.3201 21.6159C20.5322 21.7927 20.5609 22.108 20.3841 22.3201C20.2073 22.5322 19.892 22.5609 19.6799 22.3841L13.219 17L19.6799 11.6159C19.892 11.4391 20.2073 11.4678 20.3841 11.6799Z" fill="black" fill-opacity="0.6"/>
</svg>
