<svg width="13" height="14" viewBox="0 0 13 14" fill="none" xmlns="http://www.w3.org/2000/svg">
<path fill-rule="evenodd" clip-rule="evenodd" d="M1.47995 0.834204C1.18667 0.541698 0.711793 0.542325 0.419287 0.835605C0.126781 1.12888 0.127408 1.60376 0.420688 1.89626L5.53809 7.00017L0.420689 12.1041C0.127409 12.3966 0.126781 12.8715 0.419288 13.1647C0.711794 13.458 1.18667 13.4586 1.47995 13.1661L6.60016 8.05943L11.7204 13.1661C12.0136 13.4586 12.4885 13.458 12.781 13.1647C13.0735 12.8715 13.0729 12.3966 12.7796 12.1041L7.66222 7.00017L12.7796 1.89626C13.0729 1.60376 13.0735 1.12888 12.781 0.835605C12.4885 0.542325 12.0137 0.541698 11.7204 0.834204L6.60016 5.94091L1.47995 0.834204Z" fill="#21201F"/>
</svg>
