<svg width="23" height="26" viewBox="0 0 23 26" fill="none" xmlns="http://www.w3.org/2000/svg">
<path fill-rule="evenodd" clip-rule="evenodd" d="M6.5625 2.38971C6.5625 1.12453 7.54476 0 8.875 0H14.125C15.4552 0 16.4375 1.12453 16.4375 2.38971V3.77941C16.4375 3.91121 16.4268 4.04148 16.4062 4.16912H22C22.5523 4.16912 23 4.61683 23 5.16912C23 5.7214 22.5523 6.16912 22 6.16912H20.3437C20.3643 6.29675 20.375 6.42702 20.375 6.55882V21.8456C20.375 23.8783 18.8051 25.625 16.75 25.625H6.25C4.19488 25.625 2.625 23.8783 2.625 21.8456V6.55882C2.625 6.42702 2.63566 6.29675 2.65626 6.16912H1C0.447715 6.16912 0 5.7214 0 5.16912C0 4.61683 0.447715 4.16912 1 4.16912H6.59376C6.57316 4.04148 6.5625 3.91121 6.5625 3.77941V2.38971ZM4.9375 6.16912C4.81799 6.16912 4.625 6.28897 4.625 6.55882V21.8456C4.625 22.883 5.40562 23.625 6.25 23.625H16.75C17.5944 23.625 18.375 22.883 18.375 21.8456V6.55882C18.375 6.28897 18.182 6.16912 18.0625 6.16912H4.9375ZM8.875 2C8.75549 2 8.5625 2.11986 8.5625 2.38971V3.77941C8.5625 4.04926 8.75549 4.16912 8.875 4.16912H14.125C14.2445 4.16912 14.4375 4.04926 14.4375 3.77941V2.38971C14.4375 2.11986 14.2445 2 14.125 2H8.875ZM8.875 9.72794C9.42729 9.72794 9.875 10.1757 9.875 10.7279V19.0662C9.875 19.6185 9.42729 20.0662 8.875 20.0662C8.32272 20.0662 7.875 19.6185 7.875 19.0662V10.7279C7.875 10.1757 8.32272 9.72794 8.875 9.72794ZM14.125 9.72794C14.6773 9.72794 15.125 10.1757 15.125 10.7279V19.0662C15.125 19.6185 14.6773 20.0662 14.125 20.0662C13.5727 20.0662 13.125 19.6185 13.125 19.0662V10.7279C13.125 10.1757 13.5727 9.72794 14.125 9.72794Z" fill="#8269EF"/>
</svg>
