<svg width="56" height="56" viewBox="0 0 56 56" fill="none" xmlns="http://www.w3.org/2000/svg">
<rect width="56" height="56" rx="28" fill="#8269EF"/>
<path fill-rule="evenodd" clip-rule="evenodd" d="M32.3271 27.1212C33.8033 27.1212 35 25.9245 35 24.4483C35 22.9721 33.8033 21.7754 32.3271 21.7754C30.8509 21.7754 29.6542 22.9721 29.6542 24.4483C29.6542 25.9245 30.8509 27.1212 32.3271 27.1212ZM32.3271 28.1212C34.3556 28.1212 36 26.4768 36 24.4483C36 22.4198 34.3556 20.7754 32.3271 20.7754C30.4177 20.7754 28.8486 22.2324 28.671 24.0952H21.0146C20.7385 24.0952 20.5146 24.3191 20.5146 24.5952C20.5146 24.8714 20.7385 25.0952 21.0146 25.0952H28.711C29.0167 26.8152 30.5194 28.1212 32.3271 28.1212ZM23.6729 34.2237C22.1967 34.2237 21 33.027 21 31.5508C21 30.0746 22.1967 28.8779 23.6729 28.8779C25.1491 28.8779 26.3458 30.0746 26.3458 31.5508C26.3458 33.027 25.1491 34.2237 23.6729 34.2237ZM23.6729 35.2237C21.6444 35.2237 20 33.5793 20 31.5508C20 29.5223 21.6444 27.8779 23.6729 27.8779C25.5823 27.8779 27.1514 29.3349 27.329 31.1978H34.9854C35.2615 31.1978 35.4854 31.4217 35.4854 31.6978C35.4854 31.9739 35.2615 32.1978 34.9854 32.1978H27.289C26.9833 33.9177 25.4806 35.2237 23.6729 35.2237Z" fill="white"/>
</svg>
