<svg width="244" height="244" viewBox="0 0 244 244" fill="none" xmlns="http://www.w3.org/2000/svg">
<circle cx="122" cy="122" r="122" fill="#F3F3F3"/>
<path fill-rule="evenodd" clip-rule="evenodd" d="M104.776 98.3021L109.109 88.5534L108.195 88.1473L109.109 88.5534C109.35 88.0117 109.887 87.6626 110.48 87.6626H122.001H122.002H133.523C134.116 87.6626 134.653 88.0117 134.894 88.5534L139.227 98.3021C139.628 99.2049 140.523 99.7868 141.511 99.7868H159.415C160.244 99.7868 160.915 100.458 160.915 101.287V154.561C160.915 155.389 160.244 156.061 159.415 156.061H122.002H122.001H84.5876C83.7592 156.061 83.0876 155.389 83.0876 154.561V101.287C83.0876 100.458 83.7592 99.7868 84.5877 99.7868H102.492C103.48 99.7868 104.375 99.2049 104.776 98.3021ZM110.48 84.6626C108.702 84.6626 107.09 85.7099 106.368 87.335L102.167 96.7868H84.5877C82.1024 96.7868 80.0876 98.8015 80.0876 101.287V154.561C80.0876 157.046 82.1024 159.061 84.5876 159.061H122.001H122.002H159.415C161.901 159.061 163.915 157.046 163.915 154.561V101.287C163.915 98.8015 161.901 96.7868 159.415 96.7868H141.836L137.635 87.335C136.913 85.7099 135.302 84.6626 133.523 84.6626H122.002H122.001H110.48ZM135.775 126.575C135.775 134.183 129.608 140.35 122 140.35C114.392 140.35 108.225 134.183 108.225 126.575C108.225 118.967 114.392 112.8 122 112.8C129.608 112.8 135.775 118.967 135.775 126.575ZM138.775 126.575C138.775 135.84 131.265 143.35 122 143.35C112.736 143.35 105.225 135.84 105.225 126.575C105.225 117.311 112.736 109.8 122 109.8C131.265 109.8 138.775 117.311 138.775 126.575Z" fill="#D9D9D9"/>
</svg>
