<svg width="56" height="50" viewBox="0 0 56 50" fill="none" xmlns="http://www.w3.org/2000/svg">
<path fill-rule="evenodd" clip-rule="evenodd" d="M21.1169 0C19.3386 0 17.727 1.0473 17.0048 2.67238L14.659 7.95028H4.5C2.01471 7.95028 0 9.965 0 12.4503V45.3183C0 47.8036 2.01472 49.8183 4.5 49.8183H28.0009H28.0009H51.5018C53.9871 49.8183 56.0018 47.8036 56.0018 45.3183V12.4503C56.0018 9.965 53.9871 7.95028 51.5018 7.95028H41.3428L38.9971 2.67238C38.2748 1.0473 36.6633 0 34.8849 0H28.0009H28.0009H21.1169ZM19.7462 3.89079C19.9869 3.3491 20.5241 3 21.1169 3H28.0009H28.0009H34.8849C35.4777 3 36.0149 3.3491 36.2556 3.89079L38.7333 9.46563C39.1346 10.3684 40.0299 10.9503 41.0179 10.9503H51.5018C52.3303 10.9503 53.0018 11.6219 53.0018 12.4503V45.3183C53.0018 46.1468 52.3303 46.8183 51.5018 46.8183H28.0009H28.0009H4.5C3.67157 46.8183 3 46.1468 3 45.3183V12.4503C3 11.6219 3.67157 10.9503 4.5 10.9503H14.984C15.9719 10.9503 16.8672 10.3684 17.2685 9.46563L19.7462 3.89079L18.8324 3.48465L19.7462 3.89079ZM36 28C36 32.4183 32.4183 36 28 36C23.5817 36 20 32.4183 20 28C20 23.5817 23.5817 20 28 20C32.4183 20 36 23.5817 36 28ZM39 28C39 34.0751 34.0751 39 28 39C21.9249 39 17 34.0751 17 28C17 21.9249 21.9249 17 28 17C34.0751 17 39 21.9249 39 28Z" fill="#616264"/>
</svg>
