<svg width="35" height="35" viewBox="0 0 35 35" fill="none" xmlns="http://www.w3.org/2000/svg">
<path fill-rule="evenodd" clip-rule="evenodd" d="M17.5 33C26.0604 33 33 26.0604 33 17.5C33 8.93959 26.0604 2 17.5 2C8.93959 2 2 8.93959 2 17.5C2 26.0604 8.93959 33 17.5 33ZM17.5 35C27.165 35 35 27.165 35 17.5C35 7.83502 27.165 0 17.5 0C7.83502 0 0 7.83502 0 17.5C0 27.165 7.83502 35 17.5 35Z" fill="#AB9BEF"/>
<path fill-rule="evenodd" clip-rule="evenodd" d="M24.7071 23.7071C24.3166 24.0976 23.6834 24.0976 23.2929 23.7071L11.2932 11.7071C10.9026 11.3166 10.9027 10.6834 11.2932 10.2929C11.6837 9.9024 12.3169 9.90241 12.7074 10.2929L24.7071 22.2929C25.0976 22.6834 25.0976 23.3166 24.7071 23.7071Z" fill="#AB9BEF"/>
<path fill-rule="evenodd" clip-rule="evenodd" d="M11.2927 23.7071C10.9022 23.3166 10.9022 22.6834 11.2927 22.2929L23.2927 10.2929C23.6832 9.90237 24.3164 9.90237 24.7069 10.2929C25.0974 10.6834 25.0974 11.3166 24.7069 11.7071L12.7069 23.7071C12.3164 24.0976 11.6832 24.0976 11.2927 23.7071Z" fill="#AB9BEF"/>
</svg>
