<svg width="21" height="20" viewBox="0 0 21 20" fill="none" xmlns="http://www.w3.org/2000/svg">
<path fill-rule="evenodd" clip-rule="evenodd" d="M17.65 9.11825C17.65 13.2574 14.1047 16.7365 9.57502 16.7365C5.04537 16.7365 1.5 13.2574 1.5 9.11825C1.5 4.97905 5.04537 1.5 9.57502 1.5C14.1047 1.5 17.65 4.97905 17.65 9.11825ZM15.7801 16.063C14.1088 17.4184 11.9423 18.2365 9.57502 18.2365C4.28688 18.2365 0 14.1541 0 9.11825C0 4.08238 4.28688 0 9.57502 0C14.8632 0 19.15 4.08238 19.15 9.11825C19.15 11.3726 18.291 13.4358 16.8676 15.0273L20.7311 18.7065C21.0311 18.9922 21.0427 19.4669 20.757 19.7669C20.4714 20.0668 19.9966 20.0784 19.6967 19.7928L15.7801 16.063Z" fill="#21201F"/>
</svg>
