<svg width="45" height="45" viewBox="0 0 45 45" fill="none" xmlns="http://www.w3.org/2000/svg">
<path fill-rule="evenodd" clip-rule="evenodd" d="M22.4487 0H22.5513C34.9494 0 45 10.0507 45 22.4488V22.5512C45 34.9493 34.9494 45 22.5513 45H22.4487C10.0506 45 0 34.9493 0 22.5512V22.4488C0 10.0507 10.0506 0 22.4487 0ZM8.71076 21.643C8.64927 21.6713 8.58618 21.7013 8.52312 21.7328L8.52 21.7312C8.25987 21.8637 8.01234 22.0261 7.88464 22.283C7.68126 22.693 7.87515 23.2101 8.21254 23.5175C8.54992 23.8249 9.00083 23.9715 9.43754 24.1071C10.2589 24.3641 11.0835 24.6132 11.9096 24.856C12.895 25.1461 13.9197 25.4299 14.9382 25.2848C16.0765 25.124 17.0666 24.4493 18.0109 23.7934C19.4577 22.7887 20.9041 21.7836 22.3505 20.7785C23.7979 19.7727 25.2453 18.7669 26.6931 17.7614C26.9233 17.6022 27.2134 17.4351 27.4656 17.5581C27.8897 17.7646 27.6469 18.411 27.3379 18.7689C26.3359 19.9303 25.1762 20.9431 24.0174 21.9551C22.6436 23.155 21.2712 24.3536 20.1645 25.7972C19.9186 26.1173 19.6774 26.4767 19.6742 26.8803C19.6679 27.5504 20.2891 28.0328 20.8472 28.4017C22.0209 29.179 23.1951 29.9562 24.3692 30.7335C25.5434 31.5107 26.7175 32.288 27.8913 33.0652C28.4573 33.4388 29.0343 33.8188 29.6886 34.0001C30.3428 34.1798 31.0964 34.1325 31.6262 33.7084C32.2521 33.2071 32.416 32.3368 32.5359 31.5438C33.3116 26.4473 34.0861 21.3495 34.8605 16.2527C34.9643 15.5695 35.0681 14.8863 35.1719 14.2031C35.298 13.3739 35.3816 12.4058 34.7856 11.8162C34.6611 11.6917 34.5113 11.5923 34.3489 11.5214C33.8791 11.318 33.3383 11.3558 32.848 11.4489C32.7229 11.4725 32.5995 11.5054 32.4765 11.5382C32.3453 11.5732 32.2144 11.6082 32.0818 11.6317C31.8603 11.6706 31.637 11.7772 31.4224 11.8798C31.3407 11.9189 31.2602 11.9573 31.1816 11.9912C30.5396 12.2657 29.8973 12.5405 29.2549 12.8153C28.6132 13.0899 27.9714 13.3645 27.33 13.6387C26.6884 13.913 26.0463 14.1878 25.4042 14.4625C24.7622 14.7372 24.1201 15.0119 23.4785 15.2862C22.8371 15.5604 22.1954 15.835 21.5537 16.1096C20.9113 16.3844 20.2689 16.6593 19.6269 16.9337C18.9859 17.2078 18.3446 17.4822 17.7032 17.7566C17.0604 18.0316 16.4177 18.3066 15.7753 18.5813L13.8504 19.4058C13.6895 19.4744 13.5291 19.543 13.3687 19.6116C13.2083 19.6801 13.0479 19.7487 12.8871 19.8173C12.7935 19.8581 12.6993 19.8983 12.6049 19.9387C12.5388 19.9669 12.4725 19.9952 12.4062 20.0238C12.3644 20.042 12.3226 20.0597 12.2808 20.0775C12.239 20.0952 12.1973 20.1129 12.1555 20.131C12.1374 20.1383 12.1146 20.1505 12.0901 20.1636C12.0403 20.1904 11.9834 20.2209 11.9443 20.2209L11.8864 20.2457C10.8241 20.701 9.76059 21.1567 8.71076 21.643Z" fill="#292929"/>
</svg>
