<svg width="45" height="45" viewBox="0 0 45 45" fill="none" xmlns="http://www.w3.org/2000/svg">
<path fill-rule="evenodd" clip-rule="evenodd" d="M22.5 45C34.9264 45 45 34.9264 45 22.5C45 10.0736 34.9264 0 22.5 0C10.0736 0 0 10.0736 0 22.5C0 34.9264 10.0736 45 22.5 45ZM35.5495 14.625C36.4798 14.625 36.6754 15.1041 36.4798 15.7559C36.0889 17.5488 32.3395 22.8294 32.3395 22.8294C32.0135 23.3513 31.8829 23.6119 32.3395 24.1985C32.5002 24.4236 32.8434 24.7598 33.236 25.1443C33.6394 25.5395 34.0951 25.9858 34.4585 26.4154C35.7801 27.9019 36.776 29.1563 37.0539 30.021C37.3073 30.8882 36.8676 31.3279 35.9889 31.3279H32.912C32.0877 31.3279 31.6727 30.8663 30.7761 29.8688C30.396 29.4459 29.9293 28.9268 29.3082 28.3057C27.4826 26.5454 26.7004 26.3175 26.2441 26.3175C25.6248 26.3175 25.4394 26.4929 25.4394 27.3722V30.1313C25.4394 30.8885 25.1973 31.3282 23.2416 31.3282C19.9816 31.3282 16.3994 29.3488 13.8569 25.6982C10.0428 20.3522 9 16.31 9 15.495C9 15.0388 9.17563 14.625 10.055 14.6253H13.1319C13.9181 14.6253 14.2138 14.9694 14.5088 15.8216C16.0138 20.2053 18.5513 24.0366 19.5941 24.0366C19.9854 24.0366 20.1647 23.856 20.1647 22.8625V18.3316C20.094 17.0418 19.6434 16.4839 19.3096 16.0707C19.1035 15.8156 18.9419 15.6156 18.9419 15.3325C18.9419 14.9881 19.2363 14.625 19.725 14.625H24.5607C25.2126 14.625 25.4398 14.9738 25.4398 15.7559V21.8522C25.4398 22.5038 25.7229 22.7322 25.9182 22.7322C26.3098 22.7322 26.6357 22.5038 27.3526 21.7866C29.5691 19.3091 31.1342 15.4953 31.1342 15.4953C31.3295 15.0388 31.6901 14.625 32.4726 14.625H35.5495Z" fill="#292929"/>
</svg>
